:SAMPLES-PER-SECOND 30
:FULLY-SPECIFIED
:DEGREES
162
root  -77.3696 41.6033 -5.84264 -169.159 -87.6943 167.458
RightUpLeg  -2.95712 -8.26264 -7.91029
RightLeg  4.50045 -0.0774491 2.09148
RightFoot  2.08418 -0.243401 2.18745
RightToes  -1.74624e-010 0 -3.6325e-017
Spine  3.96916 -1.24929 1.67352
Spine1  1.04489 -0.540459 -3.99567
HEad  -12.2914 4.86023 0.302317
LeftShoulder1  2.05744 -5.29389 -16.6257
LeftArm  -18.0166 15.9636 -6.53315
LeftForeArm  16.2641 -9.61831 -1.862
LeftHand  -0.244104 0.0205437 5.32207
RightShoulder  2.52864 4.54704 25.2762
RightArm  -14.8757 -12.2365 4.32193
RightForeArm  -0.771168 7.17287 4.67738
RightHand  -1.01219 3.78989 -13.0118
LeftUpLeg  -0.300201 5.60769 2.47547
LeftLeg  5.08854 11.5701 -3.76467
LeftFoot  -3.16905 -0.0875355 1.50497
LeftToes  1.61887e-010 9.40759e-012 5.52375e-011
163
root  -77.5944 41.6326 -5.94511 -167.232 -87.8722 165.719
RightUpLeg  -2.50699 -8.32655 -7.91873
RightLeg  4.10832 -0.404355 2.22669
RightFoot  1.77856 -0.221348 2.02984
RightToes  -1.74624e-010 0 -3.6325e-017
Spine  3.48079 -1.37117 1.41722
Spine1  0.838778 -0.711104 -3.79489
HEad  -11.3731 4.98401 0.661484
LeftShoulder1  1.51578 -4.24187 -12.4705
LeftArm  -23.2234 16.4615 -6.20748
LeftForeArm  19.774 -11.5548 -0.414799
LeftHand  -0.244104 0.0205437 5.32207
RightShoulder  1.93615 3.33438 22.0271
RightArm  -15.832 -9.88268 1.62448
RightForeArm  -1.58491 6.07042 4.45526
RightHand  -1.07178 4.22081 -13.1643
LeftUpLeg  0.120383 5.51917 2.54978
LeftLeg  4.52012 11.434 -3.77196
LeftFoot  -3.13939 -0.0731499 1.2834
LeftToes  1.61887e-010 9.40759e-012 5.52375e-011
164
root  -77.7976 41.6618 -6.04807 -168.935 -87.9576 167.704
RightUpLeg  -2.09866 -8.33464 -7.7712
RightLeg  3.39293 -0.464703 2.43209
RightFoot  1.78099 -0.202909 1.86982
RightToes  -1.74624e-010 0 -3.6325e-017
Spine  3.1195 -1.34058 1.56277
Spine1  0.344844 -0.690459 -3.79084
HEad  -10.1463 4.83063 0.940834
LeftShoulder1  1.16033 -3.51435 -9.09774
LeftArm  -29.9095 16.8655 -6.03458
LeftForeArm  25.2123 -13.9406 0.897271
LeftHand  -0.244104 0.0205437 5.32207
RightShoulder  1.43167 2.18152 18.6587
RightArm  -16.087 -8.04365 -0.585557
RightForeArm  -4.08604 5.41353 4.58047
RightHand  -1.03191 3.56346 -13.5861
LeftUpLeg  0.310958 5.48844 2.73773
LeftLeg  4.15841 11.3554 -3.71044
LeftFoot  -3.16082 -0.0545698 1.03028
LeftToes  1.61887e-010 9.40759e-012 5.52375e-011
165
root  -77.9809 41.6875 -6.157 -171.718 -87.882 170.847
RightUpLeg  -1.91013 -8.25789 -7.513
RightLeg  2.78873 -0.387156 2.54616
RightFoot  1.90901 -0.167715 1.55509
RightToes  -1.74624e-010 0 -3.6325e-017
Spine  2.61593 -1.21211 1.83495
Spine1  0.0306819 -0.571015 -3.77363
HEad  -9.10526 4.51736 1.10429
LeftShoulder1  0.896675 -2.76937 -6.57273
LeftArm  -31.0566 16.1101 -5.19799
LeftForeArm  24.0539 -13.6654 1.16742
LeftHand  -0.244104 0.0205437 5.32207
RightShoulder  1.03516 1.15965 15.4473
RightArm  -16.9817 -6.8745 -2.13361
RightForeArm  -6.99409 5.99553 4.67193
RightHand  -0.880106 1.89532 -14.1755
LeftUpLeg  0.390313 5.49044 2.94884
LeftLeg  3.81599 11.422 -3.66764
LeftFoot  -3.15488 -0.0397749 0.826654
LeftToes  1.61887e-010 9.40759e-012 5.52375e-011
166
root  -78.1489 41.7044 -6.26892 -172.846 -87.6645 172.26
RightUpLeg  -1.84132 -8.15447 -7.31937
RightLeg  2.53722 -0.363784 2.57822
RightFoot  1.76057 -0.15382 1.44406
RightToes  -1.74624e-010 0 -3.6325e-017
Spine  2.16174 -1.1451 2.16724
Spine1  -0.160092 -0.445092 -4.14639
HEad  -8.17262 4.48737 1.44774
LeftShoulder1  0.640956 -1.8548 -3.92512
LeftArm  -28.2524 15.0859 -4.80754
LeftForeArm  17.6016 -11.6469 1.01559
LeftHand  -0.244104 0.0205437 5.32207
RightShoulder  0.806894 0.505095 13.1669
RightArm  -18.7403 -6.09594 -3.17055
RightForeArm  -9.64929 7.01217 4.54745
RightHand  -0.859944 1.16221 -15.2789
LeftUpLeg  0.557025 5.48625 3.09464
LeftLeg  3.45427 11.6414 -3.6434
LeftFoot  -3.14809 -0.0258441 0.633775
LeftToes  1.61887e-010 9.40759e-012 5.52375e-011
167
root  -78.2993 41.713 -6.38019 -172.543 -87.3836 172.057
RightUpLeg  -1.73001 -8.13819 -7.2456
RightLeg  2.52503 -0.205502 2.63551
RightFoot  1.45113 -0.162395 1.5362
RightToes  -1.74624e-010 0 -3.6325e-017
Spine  1.93797 -1.15643 2.18267
Spine1  -0.133622 -0.43086 -4.30286
HEad  -7.81304 4.88855 1.64433
LeftShoulder1  0.430585 -0.78733 -1.78134
LeftArm  -26.7045 14.4811 -4.70731
LeftForeArm  14.3559 -10.3096 0.780836
LeftHand  -0.244104 0.0205437 5.32207
RightShoulder  0.675913 0.109512 11.5804
RightArm  -18.0588 -4.28498 -4.3482
RightForeArm  -12.6422 5.99902 5.00063
RightHand  -1.01452 2.07169 -15.8939
LeftUpLeg  0.894364 5.47894 3.19054
LeftLeg  3.12284 11.904 -3.62698
LeftFoot  -3.16761 -0.00907769 0.395436
LeftToes  1.61887e-010 9.40759e-012 5.52375e-011
168
root  -78.4288 41.7182 -6.48964 -172.219 -87.1085 171.69
RightUpLeg  -1.57092 -8.17004 -7.18701
RightLeg  2.62059 0.11446 2.71396
RightFoot  1.26519 -0.14971 1.43281
RightToes  -1.74624e-010 0 -3.6325e-017
Spine  2.09991 -1.13846 1.98218
Spine1  -0.294296 -0.441826 -4.13159
HEad  -7.68116 5.15045 1.69207
LeftShoulder1  0.328358 -0.150015 -0.567728
LeftArm  -25.72 14.4551 -4.31907
LeftForeArm  13.8632 -9.84548 0.569933
LeftHand  -0.244104 0.0205437 5.32207
RightShoulder  0.591363 -0.133024 10.2881
RightArm  -17.6475 -2.73791 -5.24102
RightForeArm  -11.8603 5.21022 5.14063
RightHand  -0.857832 1.45592 -14.6592
LeftUpLeg  1.32217 5.48599 3.29332
LeftLeg  2.85299 12.1108 -3.60937
LeftFoot  -3.18903 0.00674148 0.171718
LeftToes  1.61887e-010 9.40759e-012 5.52375e-011
169
root  -78.5415 41.7236 -6.59135 -173.467 -86.8893 172.867
RightUpLeg  -1.35694 -8.13915 -7.02663
RightLeg  2.63698 0.311972 2.7688
RightFoot  1.19895 -0.11796 1.14763
RightToes  -1.74624e-010 0 -3.6325e-017
Spine  2.34512 -1.10699 2.16626
Spine1  -0.487522 -0.354187 -4.43238
HEad  -7.58356 4.93935 2.01751
LeftShoulder1  0.27648 0.114674 0.375226
LeftArm  -25.3761 14.6214 -4.19461
LeftForeArm  14.8633 -9.6748 0.576907
LeftHand  -0.244104 0.0205437 5.32207
RightShoulder  0.542886 -0.333856 9.82143
RightArm  -17.2335 -1.45246 -5.88901
RightForeArm  -10.6265 4.65541 5.26734
RightHand  -0.812453 1.47185 -13.8685
LeftUpLeg  1.68972 5.54569 3.48184
LeftLeg  2.70547 12.2086 -3.56925
LeftFoot  -3.22664 0.0160529 0.0443144
LeftToes  1.61887e-010 9.40759e-012 5.52375e-011
